<svg version="1.1" id="Layer_1" xmlns="http://www.w3.org/2000/svg" xmlns:xlink="http://www.w3.org/1999/xlink" x="0px" y="0px"
	 width="100%" viewBox="0 0 1024 1024" enable-background="new 0 0 1024 1024" xml:space="preserve">
<rect width="100%" height="100%" fill="#FEFFFE" />
<path fill="#E65B29" opacity="1.000000" stroke="none" 
	d="M674.417725,444.805389 
	C723.203308,415.459686 771.955688,386.058472 820.786499,356.788208 
	C852.112000,338.011047 857.022034,298.576385 831.080505,272.929443 
	C816.329773,258.346191 791.196167,253.918442 772.614014,263.098389 
	C764.271240,267.219910 756.277527,272.083221 748.291687,276.886322 
	C701.644104,304.942719 654.979309,332.971863 608.465515,361.248932 
	C591.473938,371.578583 581.465149,387.026428 581.867004,407.006226 
	C582.670349,446.951019 622.443115,469.781311 655.735107,454.802826 
	C661.938538,452.011841 667.762817,448.378204 674.417725,444.805389 z"/>
<path fill="#E65B29" opacity="1.000000" stroke="none" 
	d="M307.076324,451.250732 
	C312.308136,454.171173 317.541016,457.089752 322.771637,460.012329 
	C358.926239,480.213745 395.061432,500.450104 431.271240,520.552063 
	C434.115479,522.131042 435.320831,523.858337 435.348267,527.148560 
	C435.516266,547.297485 436.022003,567.443848 436.165283,587.592834 
	C436.569214,644.402222 436.880707,701.212341 437.170105,758.022461 
	C437.307617,785.017761 437.213348,812.014465 437.401947,839.009277 
	C437.635010,872.372070 467.868347,897.092163 500.815155,891.716797 
	C526.182373,887.578003 546.615967,864.478027 545.824585,838.264160 
	C544.658752,799.647949 544.997681,760.985046 544.786194,722.341492 
	C544.369385,646.203003 543.857361,570.064453 543.732666,493.925415 
	C543.696350,471.774780 534.802795,454.689636 515.985840,443.684082 
	C485.969086,426.128143 455.440857,409.444305 425.073853,392.490356 
	C394.845795,375.613983 364.550049,358.858795 334.283722,342.051086 
	C292.529053,318.863556 250.912857,295.419250 208.874496,272.758026 
	C202.330124,269.230194 193.785034,267.651733 186.293106,267.991760 
	C167.754395,268.833191 152.683273,276.895111 142.007050,292.849792 
	C123.976250,319.795227 133.076172,352.730499 157.920761,367.787231 
	C179.665268,380.965149 202.224350,392.800385 224.442108,405.195557 
	C251.764999,420.438904 279.107117,435.647827 307.076324,451.250732 z"/>
<path fill="#E65B29" opacity="1.000000" stroke="none" 
	d="M690.498474,663.848938 
	C696.689636,667.425781 702.826965,671.099976 709.082153,674.561218 
	C727.851807,684.947021 746.725830,695.145630 765.444336,705.622253 
	C777.475342,712.356079 788.899292,719.512756 803.835449,719.072205 
	C830.790100,718.277222 854.490173,700.410278 858.988159,671.660522 
	C862.168579,651.331726 851.599121,628.429199 833.848267,618.441040 
	C811.083008,605.631348 788.159302,593.102905 765.287415,580.483093 
	C736.023743,564.336548 706.645874,548.394104 677.501282,532.035645 
	C653.635254,518.640076 627.281677,523.244263 609.492371,542.125366 
	C587.472290,565.496826 588.455383,599.646545 614.622498,621.481018 
	C618.003418,624.302124 622.247437,626.110657 626.153198,628.277283 
	C647.369141,640.046753 668.604370,651.781311 690.498474,663.848938 z"/>
<path fill="#E65B29" opacity="1.000000" stroke="none" 
	d="M434.347473,228.499588 
	C434.659271,257.464722 435.638214,286.442932 435.070190,315.390778 
	C434.621826,338.240906 454.029114,362.286621 474.424347,367.194183 
	C510.912384,375.974030 544.865540,351.244476 544.633118,314.503296 
	C544.500427,293.532837 543.984741,272.564636 543.880859,251.594208 
	C543.689392,212.947311 543.719299,174.299316 543.528687,135.652405 
	C543.505066,130.860016 543.153992,125.977089 542.180908,121.297012 
	C537.223328,97.453644 514.513123,78.572906 488.247559,79.041840 
	C458.578461,79.571533 433.377258,105.482780 434.047729,133.050583 
	C434.812958,164.517380 434.302094,196.015228 434.347473,228.499588 z"/>
</svg>